<?xml version="1.0" encoding="UTF-8"?>
<svg version="1.1" xmlns="http://www.w3.org/2000/svg" width="538" height="537">
<path d="M0 0 C4.10473056 1.697997 8.23352181 3.3358817 12.36132812 4.97680664 C13.08175293 5.266604 13.80217773 5.55640137 14.54443359 5.85498047 C26.4475293 10.5158312 38.70046553 9.56011197 51.04882812 7.47680664 C70.15583861 4.35143519 90.94803842 4.38295618 108.36132812 13.97680664 C109.99134766 14.8256543 109.99134766 14.8256543 111.65429688 15.69165039 C119.51885544 19.89197907 125.99085484 24.67507947 132.36132812 30.97680664 C132.99554688 31.56204102 133.62976563 32.14727539 134.28320312 32.75024414 C144.90591527 42.76191532 150.79541431 55.57027668 155.17382812 69.28930664 C155.38088379 69.93464355 155.58793945 70.57998047 155.80126953 71.24487305 C162.82506852 94.36364528 155.72257999 116.4297851 145.56054688 137.20727539 C140.59760358 148.6689262 143.03512999 162.79293658 145.67382812 174.53930664 C157.85118593 229.22702833 152.7857304 289.65850103 126.17773438 339.56665039 C124.54905909 342.62435689 123.07579374 345.71366604 121.61132812 348.85180664 C112.41853528 367.18770156 99.08407468 384.39643839 84.97851562 399.20727539 C82.93297957 401.37187996 80.99823189 403.55182394 79.11132812 405.85180664 C75.89027869 409.65765756 72.16554098 412.76994952 68.36132812 415.97680664 C67.44738281 416.77860352 66.5334375 417.58040039 65.59179688 418.40649414 C16.27657981 461.4528951 -48.68507328 483.51142029 -114.06958008 479.64941406 C-162.56575205 476.03482293 -210.14835119 458.928118 -248.63867188 428.97680664 C-249.56164062 428.2665332 -250.48460937 427.55625977 -251.43554688 426.82446289 C-256.56882153 422.79914659 -261.44531442 418.53311847 -266.25976562 414.13305664 C-268.41377696 412.18065228 -270.60894914 410.29403305 -272.82617188 408.41430664 C-276.12722052 405.53579222 -278.99093922 402.44951475 -281.81445312 399.10571289 C-283.0478716 397.66628448 -284.31780754 396.25748543 -285.61914062 394.87915039 C-296.58425824 383.23495445 -305.5817732 369.75150438 -313.63867188 355.97680664 C-314.26902344 354.94168945 -314.899375 353.90657227 -315.54882812 352.84008789 C-330.0459629 328.48605433 -340.16624786 300.97709531 -344.63867188 272.97680664 C-344.78530273 272.10217773 -344.93193359 271.22754883 -345.08300781 270.32641602 C-352.40334602 225.14497378 -347.91985732 174.98714021 -328.65014648 133.17285156 C-327.58958585 130.87023439 -326.58976039 128.54712691 -325.59570312 126.21508789 C-321.07821876 115.77325745 -316.04685396 106.35810094 -309.63867188 96.97680664 C-308.48711868 95.12618694 -307.34098716 93.27217886 -306.20117188 91.41430664 C-300.00237345 81.68762063 -292.78408039 72.904244 -284.94335938 64.46508789 C-282.93640991 62.29826279 -280.99643906 60.09506807 -279.07617188 57.85180664 C-271.94507083 49.69010358 -264.10502105 42.72077532 -255.63867188 35.97680664 C-254.88328125 35.34258789 -254.12789063 34.70836914 -253.34960938 34.05493164 C-239.99093646 22.94565726 -224.99327153 14.015515 -209.63867188 5.97680664 C-209.00832031 5.6372998 -208.37796875 5.29779297 -207.72851562 4.94799805 C-187.20591994 -6.01590458 -162.6509616 -13.83285319 -139.63867188 -17.02319336 C-138.65898437 -17.16692383 -137.67929688 -17.3106543 -136.66992188 -17.45874023 C-89.59913338 -24.17901825 -43.75259895 -18.22869275 0 0 Z M17.79882812 44.53930664 C4.6980481 59.67849475 -0.71154682 77.87150337 0.18652344 97.80688477 C1.63016282 115.72736913 10.63652543 131.82310628 23.48632812 144.10180664 C38.95176674 157.18794701 57.97655673 163.19389184 78.12060547 161.52539062 C97.35938285 159.60548374 114.19672121 150.86809357 126.79882812 136.12524414 C138.61976951 121.07687468 144.03353819 103.0936772 142.36132812 83.97680664 C139.90319876 65.49004857 131.446977 48.85585105 117.01367188 36.88305664 C86.00099355 14.59412141 44.77608285 16.51039622 17.79882812 44.53930664 Z " fill="#4D5182" transform="translate(366.638671875,36.023193359375)"/>
</svg>
