<svg xmlns="http://www.w3.org/2000/svg" viewBox="20 0 285 252" preserveAspectRatio="xMidYMid meet">
  <path
    d="M97.154657 68.01531H225.44811c2.29287 0 4.13876 1.84589 4.13876 4.13876l13.28799 137.89034c-59.40065 22.54193-90.74889 22.19899-160.484632 7.82985L93.0159 72.15407c0-2.29287 1.845885-4.13876 4.138757-4.13876z"
    fill="#3A3A3A"
    stroke="#000"
    stroke-width=".1"
  />
  <path
    d="M91.573989 87.52858c49.179961 2.52301 88.180901 3.21901 139.709871-1.044L233.85661 115.75391l-3.39312.01229c-46.63216 5.64525-94.04732 6.07048-135.981468.49269l-4.697785.01702 1.789752-28.74733z"
    fill="#C64343"
    stroke="#000"
    stroke-width=".1"
  />
  <path
    d="M284.21525 60.02307A124.75942 16.609357 0 0 1 159.45583 76.63243 124.75942 16.609357 0 0 1 34.696404 60.02307 124.75942 16.609357 0 0 1 159.45583 43.413713 124.75942 16.609357 0 0 1 284.21525 60.02307z"
    fill="#2F2F2F"
    stroke="#000"
    stroke-width=".84327406"
  />
  <path
    d="M283.6932486 57.32506A124.75942 16.609357 0 0 1 158.9338286 73.934417 124.75942 16.609357 0 0 1 34.1744026 57.32506 124.75942 16.609357 0 0 1 158.9338286 40.715703 124.75942 16.609357 0 0 1 283.6932486 57.32506z"
    fill="#5A5A5A"
    stroke="#000"
    stroke-width=".84327406"
  />
  <path
    d="M231.2466 57.080604A68.121178 9.3963694 0 0 1 163.12542 66.476973 68.121178 9.3963694 0 0 1 95.004242 57.080604 68.121178 9.3963694 0 0 1 163.12542 47.684234 68.121178 9.3963694 0 0 1 231.2466 57.080604z"
    fill="#2A2A2A"
    stroke="#000"
    stroke-width=".89752746"
  />
</svg>
